<svg width="25" height="25" viewBox="0 0 25 25" fill="none" xmlns="http://www.w3.org/2000/svg">
<path d="M16.0391 9.78906L13.3281 12.5L16.0391 15.2109C16.0966 15.2646 16.1428 15.3293 16.1748 15.4011C16.2069 15.473 16.2241 15.5506 16.2255 15.6293C16.2268 15.708 16.2124 15.7861 16.1829 15.8591C16.1534 15.932 16.1096 15.9983 16.0539 16.0539C15.9983 16.1096 15.932 16.1534 15.8591 16.1829C15.7861 16.2124 15.708 16.2268 15.6293 16.2255C15.5506 16.2241 15.473 16.2069 15.4011 16.1748C15.3293 16.1428 15.2646 16.0966 15.2109 16.0391L12.5 13.3281L9.78906 16.0391C9.67798 16.1426 9.53107 16.1989 9.37928 16.1962C9.22748 16.1936 9.08265 16.1321 8.97529 16.0247C8.86794 15.9174 8.80644 15.7725 8.80377 15.6207C8.80109 15.4689 8.85743 15.322 8.96093 15.2109L11.6719 12.5L8.96093 9.78906C8.85743 9.67799 8.80109 9.53108 8.80377 9.37928C8.80644 9.22748 8.86794 9.08265 8.97529 8.9753C9.08265 8.86794 9.22748 8.80645 9.37928 8.80377C9.53107 8.80109 9.67798 8.85744 9.78906 8.96094L12.5 11.6719L15.2109 8.96094C15.322 8.85744 15.4689 8.80109 15.6207 8.80377C15.7725 8.80645 15.9173 8.86794 16.0247 8.9753C16.1321 9.08265 16.1935 9.22748 16.1962 9.37928C16.1989 9.53108 16.1426 9.67799 16.0391 9.78906ZM22.4609 12.5C22.4609 14.4701 21.8767 16.3959 20.7822 18.034C19.6877 19.6721 18.132 20.9488 16.3119 21.7027C14.4918 22.4566 12.4889 22.6539 10.5567 22.2695C8.62448 21.8852 6.84961 20.9365 5.45655 19.5434C4.06349 18.1504 3.1148 16.3755 2.73046 14.4433C2.34611 12.5111 2.54337 10.5082 3.29729 8.68811C4.05121 6.86799 5.32793 5.3123 6.966 4.21778C8.60406 3.12326 10.5299 2.53906 12.5 2.53906C15.1408 2.54216 17.6727 3.59261 19.54 5.45998C21.4074 7.32735 22.4578 9.85915 22.4609 12.5ZM21.2891 12.5C21.2891 10.7617 20.7736 9.06241 19.8078 7.61706C18.8421 6.1717 17.4694 5.04519 15.8634 4.37996C14.2574 3.71474 12.4902 3.54069 10.7853 3.87982C9.08042 4.21894 7.51436 5.05602 6.28519 6.28519C5.05602 7.51437 4.21894 9.08043 3.87981 10.7853C3.54069 12.4903 3.71474 14.2574 4.37996 15.8634C5.04519 17.4694 6.1717 18.8421 7.61706 19.8078C9.06241 20.7736 10.7617 21.2891 12.5 21.2891C14.8302 21.2865 17.0642 20.3597 18.7119 18.712C20.3597 17.0642 21.2865 14.8302 21.2891 12.5Z" fill="currentColor"/>
</svg>
