<svg width="48" height="48" viewBox="0 0 48 48" fill="none" xmlns="http://www.w3.org/2000/svg">
<path fill-rule="evenodd" clip-rule="evenodd" d="M24 42C33.941 42 42 33.941 42 24C42 14.059 33.941 6 24 6C14.059 6 6 14.059 6 24C6 33.941 14.059 42 24 42ZM24 44C35.046 44 44 35.046 44 24C44 12.954 35.046 4 24 4C12.954 4 4 12.954 4 24C4 35.046 12.954 44 24 44Z" fill="currentColor"/>
<path fill-rule="evenodd" clip-rule="evenodd" d="M34.67 16.259C34.8667 16.4367 34.9848 16.6853 34.9983 16.9501C35.0118 17.2149 34.9196 17.4742 34.742 17.671L21.386 32.432L13.31 24.723C13.1287 24.5377 13.0264 24.2892 13.0248 24.0299C13.0232 23.7706 13.1223 23.5208 13.3013 23.3332C13.4803 23.1456 13.7252 23.0349 13.9843 23.0244C14.2434 23.014 14.4964 23.1045 14.69 23.277L21.28 29.567L33.259 16.33C33.3472 16.2326 33.4536 16.1535 33.5724 16.0972C33.6911 16.041 33.8198 16.0087 33.951 16.0022C34.0822 15.9957 34.2134 16.0151 34.3372 16.0594C34.4609 16.1036 34.5746 16.1718 34.672 16.26L34.67 16.259Z" fill="currentColor"/>
</svg>
